<svg xmlns="http://www.w3.org/2000/svg" fill-rule="evenodd" clip-rule="evenodd" image-rendering="optimizeQuality" shape-rendering="geometricPrecision" text-rendering="geometricPrecision" viewBox="0 0 58171.277 39944.188">
  <defs/>
  <path fill-rule="nonzero" d="M20759.621 20564.626c6828-21 13656-42 20483-62 154 31 250 91 312 235l4 1539c-10 552-81 531-514 483-1338-149-4072 364-6610 1429-2508 1053-4802 2637-5292 4633-34 139-60 281-76 425-141 1268 252 2761 1161 3935 767 990 1903 1751 3398 1954 587 80 1299 58 2013 35 326-10 652-20 977-21 260-1 497 69 700 356 160 225 288 598 374 1220l2 18c-8 922-25 1845-27 2767 0 36-2 73 0 109 10 185-208 342-314 323h-7027l-93-14c-560-175-1063-379-1559-580-1190-483-2339-949-4044-889h-24c-1718-87-2869 378-4068 863-446 180-899 363-1389 523-140 46-152 60-296 60h-6943c-191 0-359-52-340-429 4-73-1-147-2-220-8-850-17-1700-24-2550l2-18c86-622 214-995 374-1220 203-287 441-356 700-356 325 1 651 11 977 21 714 22 1426 45 2013-35 1382-188 2458-853 3218-1735 878-1018 1338-2322 1368-3517l-4542 12v19l-201-19h-35v-3l-83-8c-2717-256-5323-600-7863-1596-2550-1000-5024-2651-7456-5517-48-218 32-415 222-480h15161c-1-470-2-940-4-1410 0-28-1-29 11-54 56-122 142-178 251-206 23-6 32-6 55-7l5049-13zm-1097 3467c0-32 26-58 58-58s58 26 58 58l11 4300c0 32-26 58-58 58s-58-26-58-58zm17444-1356l-16058 42 17 6618c-41 307-137 377-289 510-30 1326-538 2773-1509 3900-846 981-2043 1721-3581 1931-632 86-1368 63-2106 40-326-10-653-20-961-21-85 0-162 22-226 112-107 150-198 435-269 942l25 2574h6725c512-162 982-352 1445-540 1256-508 2463-995 4302-904 1825-62 3025 425 4270 930 473 192 953 387 1469 551h6725l25-2574c-71-508-162-792-269-942-64-90-141-112-226-112-308 1-635 11-961 21-738 23-1474 46-2106-40-1663-227-2927-1074-3781-2176-1003-1296-1436-2947-1280-4355 19-169 49-335 89-500 543-2208 2979-3918 5632-5032 962-404 1955-730 2897-974zm-5034 15596c1 161-128 292-288 293-161 1-292-128-293-288l-13-1180-1495-1274c-792-662-1586-1279-2460-1756-777-425-1623-743-2598-890-236-36-328-43-564-13-995 129-1858 443-2650 871-874 473-1667 1090-2458 1751l-1494 1273-2 1154c0 161-130 291-291 291s-291-130-291-291l2-1002-3551-42c-161-2-289-134-287-294 2-161 134-289 294-287l3730 44 1514-1290 2-2c815-682 1637-1319 2556-1817 908-491 1906-843 3078-961 110-11 122-10 235 4 1160 138 2151 498 3053 991 921 503 1741 1140 2555 1820l2 2 1514 1290 3730-44c161-2 292 127 294 287 2 161-127 292-287 294l-3549 42 11 1025zm-23034-10904c2157 815 3785 839 6032 924v-5453h-14192c2226 2489 4484 3960 6805 4870 2377 932 4831 1280 7387 1529v-425c-810-39-5919-839-6032-1445zm-4630-3825c-32 0-58-26-58-58s26-58 58-58h9144c32 0 58 26 58 58s-26 58-58 58zm16639-1406l19931-52-3-1000-19931 61zm-584-990l-4487 12 21 8118 4487-12zm17613-13883l19987 16264c125 101 144 285 42 409l-4 4-2599 3080c-104 123-288 138-410 34l-5-5-20010-16283-2763 3229c-105 122-288 136-410 32l-4997-4277c-122-105-136-288-32-410l2814-3288-314-678 36-303 2090-2622 334-90 740 289 6 24 2200-2571c105-122 288-136 410-32l4997 4277c122 105 136 288 32 410l-2144 2506zm-9628 1516c-57-59-344 259-280 324 244 223 2001 2003 2186 1822-97-237-851-1062-1015-1231 71-819 1522-2823 1605-3110-60-45-144-33-189 27-363 480-682 944-966 1408-278 454-522 907-739 1376l-601-616zm6142-7143c-63-52 228-365 299-307 243 224 2167 1822 2002 2022-245-77-1131-757-1313-906-810 141-2682 1757-2961 1865-50-56-45-141 10-191 119-107 237-211 355-312 324-278 644-534 965-770 428-315 859-597 1308-854l-665-546zm-2596 1412l-171-67-1844 2313 81 175 1935-2422zm7596 1552l-4555-3898-7529 8797 4555 3899 7529-8797zm-1856 6738c-25-20-28-57-8-82s57-28 82-8l7928 6512c25 20 28 57 8 82s-57 28-82 8zm-1450-631c-25-20-29-57-8-82 20-25 57-29 82-8l8459 6882c25 20 29 57 8 82-20 25-57 29-82 8zm12661 7204c-25-20-29-57-8-82 20-25 57-29 82-8l5985 4885c25 20 29 57 8 82-20 25-57 29-82 8zm1316 613c-25-20-28-57-8-82s57-28 82-8l5686 4681c25 20 28 57 8 82s-57 28-82 8zm7206 5268l-19576-15930-2324 2554 19677 16011 2224-2635z"/>
  <text x="-1112.379" y="49987.625" font-family="'Helvetica Neue', Helvetica, Arial-Unicode, Arial, Sans-serif" font-size="5" font-weight="bold">
    Created by Olena Panasovska
  </text>
  <text x="-1112.379" y="49992.625" font-family="'Helvetica Neue', Helvetica, Arial-Unicode, Arial, Sans-serif" font-size="5" font-weight="bold">
    from the Noun Project
  </text>
</svg>
