<svg 
xmlns="http://www.w3.org/2000/svg" fill-rule="evenodd" 
clip-rule="evenodd" image-rendering="optimizeQuality" 
shape-rendering="geometricPrecision" text-rendering="geometricPrecision" 
viewBox="0 0 60000 75000"><defs/>
<path fill-rule="nonzero" d="M5796 30000v12909l1368-1234c72-73 173-118 283-118 221 0 400 179 400 400v7906h1889c221 0 400 179 400 400v1941h7826c221 0 400 179 400 400 0 111-45 211-118 283l-1188 1317h25886l-1188-1317c-73-72-118-173-118-283 0-221 179-400 400-400h7826v-1941c0-221 179-400 400-400h1889v-7906c0-221 179-400 400-400 111 0 211 45 283 118l1368 1234V17091l-1368 1234c-72 73-173 118-283 118-221 0-400-179-400-400v-7906h-1889c-221 0-400-179-400-400V7796h-7826c-221 0-400-179-400-400 0-111 45-211 118-283l1188-1317H17056l1188 1317c73 72 118 173 118 283 0 221-179 400-400 400h-7826v1941c0 221-179 400-400 400H7847v7906c0 221-179 400-400 400-111 0-211-45-283-118l-1368-1234v12909zM34714 3609l-3-500 500-3 3 500-500 3zm-9925 50l425-2-3-500-425 2 3 500zm925-5l-3-500 500-3 3 500-500 3zm1000-5l-3-500 500-3 3 500-500 3zm1000-5l-3-500 500-3 3 500-500 3zm1000-5l-3-500 500-3 3 500-500 3zm1000-5l-3-500 500-3 3 500-500 3zm1000-5l-3-500 500-3 3 500-500 3zm1000-5l-3-500 500-3 3 500-500 3zm1000-5l-3-500 500-3 3 500-500 3zm1000-5l-3-500 500-3 3 500-500 3zM15982 5795h-5844v1201h6927l-1083-1201zm-722-800l-1390-1541h-3733v1541h5123zM9337 3454H5765v1541h3572V3454zM5796 6995h1252V5844H5796v1151zm2052 0h1489V5794H7848v1201zm6496-4208l1991 2208h27329l1991-2208c79-88 188-132 297-132v-1h3910V1053c0-221 179-400 400-400h8682c221 0 400 179 400 400v8682c0 221-179 400-400 400h-1652v3991h-1c0 109-45 218-132 297l-2157 1945v27261l2157 1945c88 79 132 188 132 297h1v3991h1652c221 0 400 179 400 400v8682c0 221-179 400-400 400h-8682c-221 0-400-179-400-400v-1601h-3910v-1c-109 0-218-45-297-132l-1991-2208H16335l-1991 2208c-79 88-188 132-297 132v1h-3910v1601c0 221-179 400-400 400H1055c-221 0-400-179-400-400v-8682c0-221 179-400 400-400h1652v-3991h1c0-109 45-218 132-297l2157-1945V16368l-2157-1945c-88-79-132-188-132-297h-1v-3991H1055c-221 0-400-179-400-400V1053c0-221 179-400 400-400h8682c221 0 400 179 400 400v1601h3910v1c109 0 218 45 297 132zM9337 7795H7848v1541h1489V7795zm-2289 0H5796v1541h1252V7795zm-2052-245c-20-48-31-100-31-155V5844H3507v3492h1489V7550zm-31-2506V3054c0-221 179-400 400-400h3972V1453H1455v7882h1252V5443c0-221 179-400 400-400h1858zm2083 5092H5796v5879l1252 1129v-7008zm-3541 3813l1489 1343v-5157H3507v3813zm46357-6954V5794h-5844l-1083 1201h6927zm800-4341h3972c221 0 400 179 400 400v1990h1858c221 0 400 179 400 400v3892h1252V1454h-7882v1201zm4372 3190v1551c0 55-11 107-31 155v1786h1489V5844h-1458zm-831 1951h-1252v1541h1252V7795zm-2052 0h-1489v1541h1489V7795zm-6022-4341l-1390 1541h5123V3454h-3733zm4533 3541h1489V5794h-1489v1201zm2289 0h1252V5844h-1252v1151zm1283-2001V3453h-3572v1541h3572zm-31 11020v-5879h-1252v7008l1252-1129zm800-722l1489-1343v-3813h-1489v5157zM3967 25294l-500-1 1-500 500 1-1 500zm-22 9925l1-425-500-1-1 425 500 1zm2-925l-500-1 1-500 500 1-1 500zm2-1000l-500-1 1-500 500 1-1 500zm2-1000l-500-1 1-500 500 1-1 500zm2-1000l-500-1 1-500 500 1-1 500zm2-1000l-500-1 1-500 500 1-1 500zm2-1000l-500-1 1-500 500 1-1 500zm2-1000l-500-1 1-500 500 1-1 500zm2-1000l-500-1 1-500 500 1-1 500zm2-1000l-500-1 1-500 500 1-1 500zm6173 26708v1201h5844l1083-1201h-6927zm-800 4341H5364c-221 0-400-179-400-400v-1990H3106c-221 0-400-179-400-400v-3892H1454v7882h7882v-1201zm-4372-3190v-1551c0-55 11-107 31-155v-1786H3506v3492h1458zm831-1951h1252v-1541H5795v1541zm2052 0h1489v-1541H7847v1541zm6022 4341l1390-1541h-5123v1541h3733zm-4533-3541H7847v1201h1489v-1201zm-2289 0H5795v1151h1252v-1151zm-1283 2001v1541h3572v-1541H5764zm31-11020v5879h1252v-7008l-1252 1129zm-800 722l-1489 1343v3813h1489v-5157zm20269 11709l3 500-500 3-3-500 500-3zm9925-50l-425 2 3 500 425-2-3-500zm-925 5l3 500-500 3-3-500 500-3zm-1000 5l3 500-500 3-3-500 500-3zm-1000 5l3 500-500 3-3-500 500-3zm-1000 5l3 500-500 3-3-500 500-3zm-1000 5l3 500-500 3-3-500 500-3zm-1000 5l3 500-500 3-3-500 500-3zm-1000 5l3 500-500 3-3-500 500-3zm-1000 5l3 500-500 3-3-500 500-3zm-1000 5l3 500-500 3-3-500 500-3zm30271-31128l-500 3-3-500 500-3 3 500zm50 9925l-2-425-500 3 2 425 500-3zm-5-925l-500 3-3-500 500-3 3 500zm-5-1000l-500 3-3-500 500-3 3 500zm-5-1000l-500 3-3-500 500-3 3 500zm-5-1000l-500 3-3-500 500-3 3 500zm-5-1000l-500 3-3-500 500-3 3 500zm-5-1000l-500 3-3-500 500-3 3 500zm-5-1000l-500 3-3-500 500-3 3 500zm-5-1000l-500 3-3-500 500-3 3 500zm-5-1000l-500 3-3-500 500-3 3 500zM44018 54203h5844v-1201h-6927l1083 1201zm722 800l1390 1541h3733v-1541h-5123zm5923 1541h3572v-1541h-3572v1541zm3541-3541h-1252v1151h1252v-1151zm-2052 0h-1489v1201h1489v-1201zm-1489-800h1489v-1541h-1489v1541zm2289 0h1252v-1541h-1252v1541zm2052 245c20 48 31 100 31 155v1551h1458v-3492h-1489v1786zm31 2506v1990c0 221-179 400-400 400h-3972v1201h7882v-7882h-1252v3892c0 221-179 400-400 400h-1858zm-2083-5092h1252v-5879l-1252-1129v7008zm3541-3813l-1489-1343v5157h1489v-3813z"/>
</svg>